<svg width="100" height="100" viewBox="0 0 100 100" xmlns="http://www.w3.org/2000/svg">
  <!-- 小星星 -->
  <polygon points="10,10 13,5 16,10 11,13" fill="#FFD700" opacity="0.7"/>
  <polygon points="40,20 43,15 46,20 41,23" fill="#4169E1" opacity="0.7"/>
  <polygon points="70,15 73,10 76,15 71,18" fill="#FF6347" opacity="0.7"/>
  <polygon points="85,35 88,30 91,35 86,38" fill="#32CD32" opacity="0.7"/>
  <polygon points="25,40 28,35 31,40 26,43" fill="#FF69B4" opacity="0.7"/>
  
  <!-- 圆形 -->
  <circle cx="15" cy="60" r="3" fill="#1E90FF" opacity="0.7"/>
  <circle cx="45" cy="50" r="4" fill="#FF8C00" opacity="0.7"/>
  <circle cx="75" cy="55" r="3" fill="#9932CC" opacity="0.7"/>
  <circle cx="60" cy="80" r="4" fill="#3CB371" opacity="0.7"/>
  <circle cx="30" cy="75" r="3" fill="#FF69B4" opacity="0.7"/>
  
  <!-- 彩条 -->
  <rect x="5" y="85" width="10" height="3" fill="#FF6347" opacity="0.7" transform="rotate(30, 5, 85)"/>
  <rect x="35" y="90" width="12" height="3" fill="#32CD32" opacity="0.7" transform="rotate(-20, 35, 90)"/>
  <rect x="65" y="95" width="10" height="3" fill="#4169E1" opacity="0.7" transform="rotate(45, 65, 95)"/>
  <rect x="90" y="75" width="12" height="3" fill="#FFD700" opacity="0.7" transform="rotate(-35, 90, 75)"/>
  <rect x="55" y="5" width="10" height="3" fill="#9932CC" opacity="0.7" transform="rotate(15, 55, 5)"/>
  
  <!-- 小圆点 -->
  <circle cx="18" cy="28" r="1.5" fill="#FF6347" opacity="0.7"/>
  <circle cx="48" cy="38" r="1.5" fill="#32CD32" opacity="0.7"/>
  <circle cx="78" cy="43" r="1.5" fill="#4169E1" opacity="0.7"/>
  <circle cx="83" cy="63" r="1.5" fill="#FFD700" opacity="0.7"/>
  <circle cx="53" cy="68" r="1.5" fill="#9932CC" opacity="0.7"/>
  <circle cx="23" cy="73" r="1.5" fill="#3CB371" opacity="0.7"/>
  <circle cx="38" cy="83" r="1.5" fill="#FF69B4" opacity="0.7"/>
  <circle cx="68" cy="88" r="1.5" fill="#1E90FF" opacity="0.7"/>
  <circle cx="88" cy="18" r="1.5" fill="#FF8C00" opacity="0.7"/>
  <circle cx="8" cy="48" r="1.5" fill="#FFD700" opacity="0.7"/>
</svg> 